# xmcd CD database file
#
# Track frame offsets:
#	150
#	20377
#	39884
#	60711
#	77892
#	96240
#	113222
#	138207
#	157336
#	172791
#	188686
#	205896
#	227757
#	246728
#	263712
#	282509
#	303037
#	320376
#	338295
#
# Disc length: 4701 seconds
#
# Revision: 0
# Processed by: cddbd v1.5.2PL0 Copyright (c) Steve Scherf et al.
# Submitted via: CDex 1.70beta2
#
DISCID=fe125b13
DTITLE=Various Artist - Merengues De Oro CD 1
DYEAR=2009
DGENRE=Merengue
TTITLE0=The New York Band - Nadie Como Tú
TTITLE1=Rubby Pérez - Enamorado De Ella
TTITLE2=Mickey Taveras - La Ventanita
TTITLE3=Sergio Vargas - Anoche Hablamos De Amor
TTITLE4=Wilfrido Vargas - Dos Rosas
TTITLE5=Hermanos Rosario - Mi Tonto Amor
TTITLE6=Jossie Esteban and La Patrulla 15 - Blanca
TTITLE7=Tonny Tún Tún - Cuando Acaba El Placer
TTITLE8=Elvis Crespo - Nuestra Canción
TTITLE9=La Mákina - Nadie Se Muere
TTITLE10=Grupo Manía - Celos Me Provocan
TTITLE11=Cherry X - Solo En Ti
TTITLE12=Bananas - Tan Solo Tú
TTITLE13=Wilfrido Vargas - Trece Años
TTITLE14=Las Chicas Del Can - La Media María
TTITLE15=Rikarena - Cutibli Pancha
TTITLE16=Los Vecinos - La Guacherna
TTITLE17=Juan Luis Guerra - La Bilirrubina
TTITLE18=Los Billos - Si Tú Me Dices
EXTD=YEAR: 2009
EXTT0=
EXTT1=
EXTT2=
EXTT3=
EXTT4=
EXTT5=
EXTT6=
EXTT7=
EXTT8=
EXTT9=
EXTT10=
EXTT11=
EXTT12=
EXTT13=
EXTT14=
EXTT15=
EXTT16=
EXTT17=
EXTT18=
PLAYORDER=
